REM DIRINDEX 1\4,1\2\5,1\2\6,1\3\7,1\3\8
REM DIRNAME folder01,folder02,folder03,folder04,folder05,folder06,folder07,folder08
TITLE ""
FILE "015_Day08_Check2_Phrases.mp3" MP3
  TRACK 01 AUDIO
    TITLE "0:"
    INDEX 01 00:00:00
  TRACK 02 AUDIO
    TITLE "4:cjc124_0463"
    INDEX 01 00:00:31
  TRACK 03 AUDIO
    TITLE "0:"
    INDEX 01 00:01:46
  TRACK 04 AUDIO
    TITLE "5:cjc124_0464"
    INDEX 01 00:02:00
  TRACK 05 AUDIO
    TITLE "0:"
    INDEX 01 00:03:57
  TRACK 06 AUDIO
    TITLE "6:cjc124_0465"
    INDEX 01 00:03:74
  TRACK 07 AUDIO
    TITLE "0:"
    INDEX 01 00:05:22
  TRACK 08 AUDIO
    TITLE "5:cjc124_0466"
    INDEX 01 00:05:65
  TRACK 09 AUDIO
    TITLE "0:"
    INDEX 01 00:07:60
  TRACK 10 AUDIO
    TITLE "6:cjc124_0467"
    INDEX 01 00:08:05
  TRACK 11 AUDIO
    TITLE "0:"
    INDEX 01 00:09:34
  TRACK 12 AUDIO
    TITLE "5:cjc124_0468"
    INDEX 01 00:10:04
  TRACK 13 AUDIO
    TITLE "0:"
    INDEX 01 00:11:46
  TRACK 14 AUDIO
    TITLE "6:cjc124_0469"
    INDEX 01 00:11:64
  TRACK 15 AUDIO
    TITLE "0:"
    INDEX 01 00:13:12
  TRACK 16 AUDIO
    TITLE "5:cjc124_0470"
    INDEX 01 00:13:55
  TRACK 17 AUDIO
    TITLE "0:"
    INDEX 01 00:15:52
  TRACK 18 AUDIO
    TITLE "6:cjc124_0471"
    INDEX 01 00:16:02
  TRACK 19 AUDIO
    TITLE "0:"
    INDEX 01 00:17:70
  TRACK 20 AUDIO
    TITLE "5:cjc124_0472"
    INDEX 01 00:18:41
  TRACK 21 AUDIO
    TITLE "0:"
    INDEX 01 00:20:24
  TRACK 22 AUDIO
    TITLE "6:cjc124_0473"
    INDEX 01 00:20:41
  TRACK 23 AUDIO
    TITLE "0:"
    INDEX 01 00:22:01
  TRACK 24 AUDIO
    TITLE "5:cjc124_0474"
    INDEX 01 00:22:48
  TRACK 25 AUDIO
    TITLE "0:"
    INDEX 01 00:24:06
  TRACK 26 AUDIO
    TITLE "6:cjc124_0475"
    INDEX 01 00:24:24
  TRACK 27 AUDIO
    TITLE "0:"
    INDEX 01 00:25:33
  TRACK 28 AUDIO
    TITLE "5:cjc124_0476"
    INDEX 01 00:25:72
  TRACK 29 AUDIO
    TITLE "0:"
    INDEX 01 00:27:45
  TRACK 30 AUDIO
    TITLE "6:cjc124_0477"
    INDEX 01 00:27:61
  TRACK 31 AUDIO
    TITLE "0:"
    INDEX 01 00:29:09
  TRACK 32 AUDIO
    TITLE "5:cjc124_0478"
    INDEX 01 00:29:60
  TRACK 33 AUDIO
    TITLE "0:"
    INDEX 01 00:31:24
  TRACK 34 AUDIO
    TITLE "6:cjc124_0479"
    INDEX 01 00:31:45
  TRACK 35 AUDIO
    TITLE "0:"
    INDEX 01 00:33:28
  TRACK 36 AUDIO
    TITLE "5:cjc124_0480"
    INDEX 01 00:33:66
  TRACK 37 AUDIO
    TITLE "0:"
    INDEX 01 00:35:57
  TRACK 38 AUDIO
    TITLE "6:cjc124_0481"
    INDEX 01 00:36:01
  TRACK 39 AUDIO
    TITLE "0:"
    INDEX 01 00:37:48
  TRACK 40 AUDIO
    TITLE "5:cjc124_0482"
    INDEX 01 00:38:10
  TRACK 41 AUDIO
    TITLE "0:"
    INDEX 01 00:40:01
  TRACK 42 AUDIO
    TITLE "6:cjc124_0483"
    INDEX 01 00:40:32
  TRACK 43 AUDIO
    TITLE "0:"
    INDEX 01 00:42:12
  TRACK 44 AUDIO
    TITLE "5:cjc124_0484"
    INDEX 01 00:42:47
  TRACK 45 AUDIO
    TITLE "0:"
    INDEX 01 00:44:18
  TRACK 46 AUDIO
    TITLE "6:cjc124_0485"
    INDEX 01 00:44:38
  TRACK 47 AUDIO
    TITLE "0:"
    INDEX 01 00:45:67
  TRACK 48 AUDIO
    TITLE "5:cjc124_0486"
    INDEX 01 00:46:29
  TRACK 49 AUDIO
    TITLE "0:"
    INDEX 01 00:48:16
  TRACK 50 AUDIO
    TITLE "6:cjc124_0487"
    INDEX 01 00:48:32
  TRACK 51 AUDIO
    TITLE "0:"
    INDEX 01 00:49:39
  TRACK 52 AUDIO
    TITLE "5:cjc124_0488"
    INDEX 01 00:50:03
  TRACK 53 AUDIO
    TITLE "0:"
    INDEX 01 00:52:00
  TRACK 54 AUDIO
    TITLE "6:cjc124_0489"
    INDEX 01 00:52:14
  TRACK 55 AUDIO
    TITLE "0:"
    INDEX 01 00:53:39
  TRACK 56 AUDIO
    TITLE "5:cjc124_0490"
    INDEX 01 00:54:01
  TRACK 57 AUDIO
    TITLE "0:"
    INDEX 01 00:55:69
  TRACK 58 AUDIO
    TITLE "6:cjc124_0491"
    INDEX 01 00:56:16
  TRACK 59 AUDIO
    TITLE "0:"
    INDEX 01 00:57:66
  TRACK 60 AUDIO
    TITLE "5:cjc124_0492"
    INDEX 01 00:58:30
  TRACK 61 AUDIO
    TITLE "0:"
    INDEX 01 01:00:27
  TRACK 62 AUDIO
    TITLE "6:cjc124_0493"
    INDEX 01 01:00:41
  TRACK 63 AUDIO
    TITLE "0:"
    INDEX 01 01:02:24
  TRACK 64 AUDIO
    TITLE "5:cjc124_0494"
    INDEX 01 01:02:61
  TRACK 65 AUDIO
    TITLE "0:"
    INDEX 01 01:04:33
  TRACK 66 AUDIO
    TITLE "6:cjc124_0495"
    INDEX 01 01:04:54
  TRACK 67 AUDIO
    TITLE "0:"
    INDEX 01 01:06:34
